Coordinates
version=1
nRows=11
nColumns=63
inDegrees=yes

Units are S.I. units (second, meters, Newtons, ...)
If the header above contains a line with 'inDegrees', this indicates whether rotational values are in degrees (yes) or radians (no).

endheader
time	pelvis_tilt	pelvis_list	pelvis_rotation	pelvis_tx	pelvis_ty	pelvis_tz	hip_flexion_r	hip_adduction_r	hip_rotation_r	knee_angle_r	knee_angle_r_beta	ankle_angle_r	subtalar_angle_r	mtp_angle_r	hip_flexion_l	hip_adduction_l	hip_rotation_l	knee_angle_l	knee_angle_l_beta	ankle_angle_l	subtalar_angle_l	mtp_angle_l	L5_S1_Flex_Ext	L5_S1_Lat_Bending	L5_S1_axial_rotation	L4_L5_Flex_Ext	L4_L5_Lat_Bending	L4_L5_axial_rotation	L3_L4_Flex_Ext	L3_L4_Lat_Bending	L3_L4_axial_rotation	L2_L3_Flex_Ext	L2_L3_Lat_Bending	L2_L3_axial_rotation	L1_L2_Flex_Ext	L1_L2_Lat_Bending	L1_L2_axial_rotation	L1_T12_Flex_Ext	L1_T12_Lat_Bending	L1_T12_axial_rotation	Abs_r3	Abs_r2	Abs_r1	Abs_t1	Abs_t2	neck_flexion	neck_bending	neck_rotation	arm_flex_r	arm_add_r	arm_rot_r	elbow_flex_r	pro_sup_r	wrist_flex_r	wrist_dev_r	arm_flex_l	arm_add_l	arm_rot_l	elbow_flex_l	pro_sup_l	wrist_flex_l	wrist_dev_l
3.118644	-3.605863	-3.585123	90.466821	0.269931	0.980155	0.226711	-0.965007	-3.483591	-15.884385	5.968278	0.104166	21.368689	17.808480	0.000000	0.006329	5.085248	-0.042122	5.037690	0.087924	12.757281	-16.571931	0.000000	0.000293	-0.412659	1.347425	0.000544	-0.548836	1.431639	0.000481	-1.003338	1.431639	0.000335	-1.003338	1.178997	0.000272	-0.841494	1.094783	0.000167	-0.639208	1.010569	0.002092	-4.668077	7.493973	0.000000	0.000000	12.959868	-2.784731	-5.489207	10.060216	-4.405516	80.879158	31.427093	21.648858	1.544961	0.337598	14.423981	-10.343265	67.888010	42.131798	67.039944	1.763335	-2.238766
3.135593	-3.436604	-3.809332	90.909836	0.268951	0.979978	0.227869	-0.540889	-3.383422	-16.469195	6.322411	0.110347	21.356316	17.910439	0.000000	0.495393	4.934924	0.335581	5.354954	0.093462	12.859722	-16.593380	0.000000	0.014491	-0.398160	1.268492	0.026911	-0.529552	1.347772	0.023807	-0.968085	1.347772	0.016562	-0.968085	1.109930	0.013456	-0.811927	1.030649	0.008280	-0.616749	0.951369	0.103508	-4.504060	7.054970	0.000000	0.000000	13.162534	-2.796894	-5.980928	10.185570	-4.483390	79.164369	32.838215	18.828877	1.051438	0.694538	14.946306	-9.867305	68.563059	42.463741	64.972146	2.100482	-1.697362
3.152542	-3.291024	-4.023660	91.343803	0.268086	0.979806	0.228960	-0.130779	-3.303910	-16.987151	6.658529	0.116213	21.405618	17.968882	0.000000	0.966950	4.805112	0.758603	5.669065	0.098944	12.948476	-16.644310	0.000000	0.029232	-0.389193	1.193575	0.054286	-0.517627	1.268174	0.048025	-0.946284	1.268174	0.033409	-0.946284	1.044378	0.027144	-0.793642	0.969780	0.016703	-0.602860	0.895181	0.208798	-4.402629	6.638308	0.000000	0.000000	13.337529	-2.757407	-6.557485	10.129593	-4.614121	76.509703	34.395902	17.072791	0.380538	1.113804	15.455439	-9.418239	69.147936	42.881533	63.489924	2.187195	-0.956396
3.169492	-3.158605	-4.226147	91.795022	0.267294	0.979648	0.230002	0.258112	-3.233325	-17.449301	6.964663	0.121556	21.519323	17.977099	0.000000	1.434531	4.687496	1.243545	6.009347	0.104883	13.047962	-16.720980	0.000000	0.044889	-0.383590	1.114048	0.083363	-0.510175	1.183676	0.073748	-0.932661	1.183676	0.051304	-0.932661	0.974792	0.041684	-0.782217	0.905164	0.025650	-0.594181	0.835536	0.320637	-4.339249	6.196003	0.000000	0.000000	13.460537	-2.650209	-7.115583	9.992360	-4.792880	73.450937	35.943211	16.095516	-0.451026	1.704001	15.972118	-9.010348	69.768877	43.378380	62.358250	1.947008	-0.040100
3.186441	-3.041536	-4.407476	92.231260	0.266563	0.979503	0.230940	0.615972	-3.178760	-17.847069	7.242108	0.126399	21.713073	17.972418	0.000000	1.865728	4.587463	1.755945	6.345844	0.110756	13.181114	-16.820201	0.000000	0.060716	-0.380587	1.039181	0.112756	-0.506180	1.104130	0.099751	-0.925359	1.104130	0.069393	-0.925359	0.909283	0.056381	-0.776093	0.844335	0.034693	-0.589529	0.779386	0.433691	-4.305274	5.779614	0.000000	0.000000	13.528956	-2.506783	-7.666875	9.803072	-5.021710	70.489094	37.482081	14.972682	-1.584815	2.288729	16.470154	-8.634320	70.397384	43.926217	61.701333	1.430382	1.009891
3.203390	-2.930293	-4.560457	92.643164	0.265876	0.979383	0.231764	0.930539	-3.127853	-18.170049	7.482115	0.130588	21.953234	17.936523	0.000000	2.254035	4.497120	2.279442	6.682495	0.116632	13.347178	-16.954432	0.000000	0.075861	-0.377887	0.969996	0.140881	-0.502589	1.030621	0.124632	-0.918794	1.030621	0.086701	-0.918794	0.848747	0.070444	-0.770587	0.788122	0.043347	-0.585347	0.727497	0.541867	-4.274731	5.394829	0.000000	0.000000	13.541433	-2.341541	-8.165491	9.592822	-5.272000	67.911642	38.915753	13.756717	-2.742067	2.934561	16.952556	-8.285846	71.074172	44.483779	61.363371	0.735385	2.092043
3.220339	-2.824720	-4.683746	93.033172	0.265220	0.979281	0.232456	1.190459	-3.078543	-18.440239	7.678837	0.134021	22.225726	17.880656	0.000000	2.594138	4.415750	2.795820	7.015973	0.122452	13.554888	-17.101145	0.000000	0.090141	-0.374802	0.903262	0.167401	-0.498486	0.959716	0.148093	-0.911293	0.959716	0.103023	-0.911293	0.790354	0.083705	-0.764296	0.733901	0.051507	-0.580568	0.677447	0.643870	-4.239832	5.023674	0.000000	0.000000	13.504157	-2.160355	-8.551602	9.385220	-5.512080	65.910108	40.198179	12.360552	-3.771305	3.524800	17.395348	-7.977397	71.755150	45.044116	61.324045	-0.045871	3.152950
3.237288	-2.724737	-4.781123	93.399825	0.264570	0.979182	0.233001	1.391437	-3.029836	-18.677876	7.826986	0.136607	22.503601	17.811803	0.000000	2.884448	4.344083	3.281287	7.334733	0.128015	13.791893	-17.243965	0.000000	0.103923	-0.370840	0.840513	0.192995	-0.493217	0.893045	0.170735	-0.901659	0.893045	0.118774	-0.901659	0.735449	0.096503	-0.756216	0.682917	0.059382	-0.574431	0.630385	0.742312	-4.195012	4.674680	0.000000	0.000000	13.431095	-1.977769	-8.831238	9.140230	-5.739807	64.299663	41.340869	10.983303	-4.618779	4.053954	17.793249	-7.709584	72.444303	45.569221	61.491489	-0.826095	4.089412
3.254237	-2.634751	-4.854906	93.746422	0.263924	0.979075	0.233404	1.530033	-2.984255	-18.902458	7.924545	0.138309	22.775187	17.734186	0.000000	3.136034	4.285659	3.720406	7.652617	0.133563	14.044462	-17.365953	0.000000	0.116633	-0.366617	0.780716	0.216599	-0.487600	0.829511	0.191616	-0.891392	0.829511	0.133300	-0.891392	0.683126	0.108305	-0.747605	0.634332	0.066644	-0.567889	0.585537	0.833096	-4.147243	4.342107	0.000000	0.000000	13.338850	-1.800089	-9.016941	8.841976	-5.944636	62.924286	42.329645	9.838350	-5.235078	4.532932	18.106650	-7.481913	73.010993	46.035914	61.927961	-1.492287	4.831040
3.271186	-2.564391	-4.904844	94.066853	0.263299	0.978957	0.233702	1.604870	-2.949974	-19.131887	7.967207	0.139054	23.031766	17.675928	0.000000	3.345202	4.247807	4.091245	7.953064	0.138807	14.304554	-17.421563	0.000000	0.127063	-0.363205	0.725816	0.235969	-0.483062	0.771179	0.208752	-0.883096	0.771179	0.145221	-0.883096	0.635089	0.117991	-0.740647	0.589725	0.072604	-0.562604	0.544362	0.907601	-4.108646	4.036770	0.000000	0.000000	13.242697	-1.628977	-9.112187	8.536920	-6.118675	61.877109	43.146494	8.887267	-5.598392	4.908278	18.379156	-7.314237	73.636945	46.431698	62.248024	-2.122088	5.291043
3.288136	-2.519834	-4.942800	94.346098	0.262705	0.978810	0.233928	1.632535	-2.932458	-19.326850	7.954999	0.138841	23.274177	17.615331	0.000000	3.527281	4.237664	4.392430	8.234139	0.143713	14.560593	-17.432104	0.000000	0.136235	-0.361207	0.676490	0.253002	-0.480406	0.718771	0.223821	-0.878239	0.718771	0.155703	-0.878239	0.591929	0.126508	-0.736574	0.549648	0.077845	-0.559510	0.507368	0.973115	-4.086049	3.762436	0.000000	0.000000	13.158292	-1.474776	-9.131019	8.240588	-6.261794	61.093917	43.800119	8.213190	-5.744290	5.246246	18.581231	-7.208257	74.242472	46.758943	62.429236	-2.696328	5.466929
